<!-- Generated by IcoMoon.io -->
<svg version="1.1" xmlns="http://www.w3.org/2000/svg" width="36" height="28" viewBox="0 0 36 28">
<title>usb</title>
<path d="M35.75 12.578c0.156 0.078 0.25 0.25 0.25 0.422s-0.094 0.344-0.25 0.422l-5 3c-0.078 0.047-0.156 0.078-0.25 0.078-0.078 0-0.172-0.016-0.25-0.063-0.156-0.094-0.25-0.25-0.25-0.438v-2h-13.406c0.5 0.781 0.922 1.703 1.297 2.578 0.75 1.687 1.516 3.422 2.609 3.422h1.5v-1.5c0-0.281 0.219-0.5 0.5-0.5h5c0.281 0 0.5 0.219 0.5 0.5v5c0 0.281-0.219 0.5-0.5 0.5h-5c-0.281 0-0.5-0.219-0.5-0.5v-1.5h-1.5c-2.391 0-3.469-2.453-4.438-4.609-0.734-1.672-1.5-3.391-2.562-3.391h-5.625c-0.453 1.719-2.016 3-3.875 3-2.203 0-4-1.797-4-4s1.797-4 4-4c1.859 0 3.422 1.281 3.875 3h1.625c1.062 0 1.828-1.719 2.562-3.391 0.969-2.156 2.047-4.609 4.438-4.609h1.672c0.422-1.172 1.516-2 2.828-2 1.656 0 3 1.344 3 3s-1.344 3-3 3c-1.313 0-2.406-0.828-2.828-2h-1.672c-1.094 0-1.859 1.734-2.609 3.422-0.375 0.875-0.797 1.797-1.297 2.578h17.406v-2c0-0.187 0.094-0.344 0.25-0.438s0.359-0.078 0.5 0.016z"></path>
</svg>
